<svg width="76" height="75" viewBox="0 0 76 75" fill="none" xmlns="http://www.w3.org/2000/svg">
<rect x="0.333252" width="75" height="75" rx="37.5" fill="#FCBE44"/>
<path d="M45.8688 24.1069H29.7974C27.5742 24.1069 25.7795 25.8882 25.7795 28.0846V42.6962C25.7795 44.8926 27.5742 46.6739 29.7974 46.6739H30.8153C31.8867 46.6739 32.9045 47.0891 33.6545 47.8391L35.9447 50.1025C36.9894 51.1337 38.6903 51.1337 39.7349 50.1025L42.0251 47.8391C42.7751 47.0891 43.8063 46.6739 44.8644 46.6739H45.8688C48.092 46.6739 49.8867 44.8926 49.8867 42.6962V28.0846C49.8867 25.8882 48.092 24.1069 45.8688 24.1069ZM35.6635 38.8525C36.2126 38.8525 36.6679 39.3078 36.6679 39.8569C36.6679 40.406 36.2126 40.8614 35.6635 40.8614H32.0742C31.4849 40.8614 30.9358 40.5801 30.5876 40.098C30.2528 39.6426 30.1724 39.0801 30.3331 38.5444C30.8019 37.1114 31.9536 36.3346 32.9715 35.6382C34.0429 34.915 34.6456 34.4596 34.6456 33.6828C34.6456 32.9864 34.0831 32.4239 33.3867 32.4239C32.6903 32.4239 32.1411 32.9998 32.1411 33.6962C32.1411 34.2453 31.6858 34.7007 31.1367 34.7007C30.5876 34.7007 30.1322 34.2453 30.1322 33.6962C30.1322 31.9016 31.592 30.4284 33.4001 30.4284C35.2081 30.4284 36.6679 31.8882 36.6679 33.6962C36.6679 35.5846 35.2483 36.5489 34.1099 37.3257C33.4001 37.8078 32.7304 38.2632 32.3956 38.8659H35.6635V38.8525ZM44.5295 38.9462H44.2483V39.8703C44.2483 40.4194 43.7929 40.8748 43.2438 40.8748C42.6947 40.8748 42.2394 40.4194 42.2394 39.8703V38.9462H39.6144C39.6144 38.9462 39.6144 38.9462 39.601 38.9462C38.9447 38.9462 38.342 38.598 38.0072 38.0355C37.6724 37.4596 37.6724 36.7498 38.0072 36.1873C38.9179 34.6203 39.976 32.8391 40.9403 31.2855C41.3688 30.6025 42.1858 30.2944 42.9492 30.5087C43.7126 30.7364 44.2483 31.4328 44.2349 32.2364V36.9507H44.5295C45.0786 36.9507 45.534 37.406 45.534 37.9551C45.534 38.5043 45.0786 38.9462 44.5295 38.9462Z" fill="white"/>
<path d="M42.2395 36.9373V32.9998C41.4493 34.2855 40.6324 35.6649 39.8958 36.9239H42.2395V36.9373Z" fill="white"/>
</svg>
