<svg width="80" height="79" viewBox="0 0 80 79" fill="none" xmlns="http://www.w3.org/2000/svg">
<path fill-rule="evenodd" clip-rule="evenodd" d="M36.187 0.136059C28.452 0.861831 20.5629 4.22848 14.4408 9.41595C4.43478 17.8947 -0.763867 31.3214 0.905194 44.375C2.10532 53.7599 6.06333 61.6311 12.8891 68.2067C18.9225 74.0187 26.2769 77.5598 34.8525 78.7815C38.3676 79.2822 44.2839 79.0922 47.6773 78.3696C58.3189 76.1033 67.1081 70.0926 73.0162 61.0413C78.674 52.3738 80.6431 41.1839 78.3366 30.8085C75.1404 16.4312 63.9362 4.8287 49.7583 1.21433C45.7508 0.192534 40.2455 -0.244777 36.187 0.136059ZM46.5221 1.40432C58.3993 3.53608 68.3477 10.8205 74.0422 21.5548C78.8393 30.5979 79.7733 41.7276 76.5612 51.5763C75.2348 55.6437 72.6254 60.4986 70.0165 63.7529C63.618 71.7346 54.1306 76.984 44.2254 78.0236C28.1259 79.7132 12.9943 71.4908 5.61318 57.0419C0.620823 47.2691 0.106158 35.4128 4.2262 25.0949C7.05028 18.023 12.2109 11.6325 18.5084 7.40911C23.4064 4.12455 29.5104 1.80364 34.8299 1.20362C35.9208 1.08059 37.0953 0.93993 37.4398 0.891223C38.8514 0.691148 44.2476 0.996195 46.5221 1.40432ZM37.4398 2.14752C37.0953 2.19455 36.0148 2.33941 35.0387 2.46936C21.6069 4.2585 9.9416 13.7517 5.28685 26.6817C3.59398 31.384 2.98536 35.4338 3.17035 40.7642C3.40169 47.4261 4.96406 52.8164 8.34352 58.6131L9.22002 60.1165L10.3849 59.5182C11.1062 59.1476 12.047 58.8693 12.8548 58.7872C13.5724 58.7141 14.1598 58.6121 14.1598 58.56C14.1598 58.5082 13.9719 58.2254 13.7422 57.9319C13.0906 57.0988 13.1757 55.7394 13.9334 54.8862L14.5423 54.2005L18.8233 54.1363L23.1041 54.0718L23.9954 52.5617C24.4856 51.731 25.2918 50.4434 25.787 49.7002C26.519 48.6012 26.6873 48.1701 26.6884 47.3908C26.6903 45.9494 27.2337 42.6321 27.7394 40.9741C28.4723 38.5728 30.3159 35.233 31.9829 33.2877C36.8215 27.6407 43.5005 24.3194 53.4337 22.6205C57.8477 21.8656 66.5659 21.2826 66.5659 21.7423C66.5659 21.8801 66.2251 22.9096 65.8084 24.0305C63.7543 29.5568 60.754 34.3971 57.047 38.1645L55.267 39.9738L53.3478 40.0972C52.2922 40.1652 49.8314 40.1503 47.8792 40.0643C45.9271 39.978 44.2977 39.928 44.2582 39.953C43.8684 40.2005 48.0252 41.5509 50.7497 42.0619C51.8692 42.272 52.7814 42.491 52.7768 42.5487C52.7626 42.7314 50.2381 44.5346 48.6083 45.5263C45.1696 47.619 41.7227 48.9906 38.111 49.7034C36.03 50.114 33.5772 50.2419 33.5772 49.9395C33.5772 49.6622 35.313 46.9206 36.6077 45.1531C39.5145 41.1847 42.0511 38.1909 45.5523 34.5963L47.8792 32.2074L46.6265 33.0079C39.9141 37.298 33.8494 43.5182 28.6963 51.398C27.8208 52.7366 27.1047 53.8911 27.1047 53.9637C27.1047 54.0362 28.8665 54.0962 31.0195 54.097C34.5374 54.0983 34.9963 54.1395 35.5467 54.5041C36.7973 55.3332 37.0723 56.7784 36.1818 57.8426C35.5732 58.5699 35.5899 58.5818 37.5442 58.8294C39.9492 59.1338 42.3382 61.0103 43.1712 63.2489C43.5665 64.311 43.5991 64.8642 43.5991 70.506V76.6136L44.6952 76.4711C58.4156 74.6872 69.8908 65.6804 74.8308 52.8185C75.6645 50.6479 76.6878 46.6516 76.9939 44.3706C77.3225 41.9208 77.2676 36.1654 76.8926 33.7813C74.9496 21.4249 67.2718 11.0701 56.079 5.7113C51.3337 3.43951 46.6248 2.30876 41.2663 2.15445C39.5062 2.10364 37.7843 2.1007 37.4398 2.14752ZM277.547 8.72041C276.056 9.43758 275.628 9.88371 274.706 11.6842C274.088 12.8903 274 13.2739 273.931 15.0433C273.838 17.4633 274.181 18.5212 275.531 19.9685L276.437 20.9406L276.212 21.9298C275.763 23.9096 274.905 30.7642 274.721 33.8361C274.191 42.7299 274.753 50.5417 276.4 57.1418C277.26 60.591 277.666 61.6168 278.442 62.3052C279.179 62.9583 279.709 63.0555 280.432 62.6703C281.523 62.0889 281.72 61.6182 282.562 57.5596C284.086 50.2198 284.079 39.4034 282.544 29.9521C282.151 27.5338 281.286 23.1928 280.995 22.1857C280.673 21.0669 280.72 20.8769 281.619 19.6649C282.417 18.5892 282.454 18.4708 282.454 16.9863C282.454 15.6555 282.353 15.2177 281.744 13.9276C280.607 11.5139 280.607 11.5666 281.703 10.5406C283.344 9.00405 282.819 8.11788 280.267 8.1183C279.083 8.1183 278.559 8.2344 277.547 8.72041ZM279.18 11.2603C279.071 12.1817 279.151 12.4933 279.863 13.9371C280.499 15.2265 280.67 15.8144 280.674 16.7257L280.679 17.8804L279.218 17.9854C278.414 18.0431 277.401 18.0566 276.967 18.0152C275.868 17.9107 275.493 17.1517 275.6 15.2486C275.671 13.983 275.78 13.683 276.642 12.3789C277.482 11.1096 278.491 10.244 279.156 10.2223C279.236 10.2196 279.247 10.6867 279.18 11.2603ZM279.48 21.8693C279.894 23.5334 280.934 28.856 281.181 30.582C281.55 33.1622 281.828 35.1703 281.828 35.2641C281.828 35.3126 280.959 35.3093 279.896 35.257C278.834 35.2045 277.545 35.2597 277.031 35.3794C276.517 35.499 276.074 35.5736 276.045 35.5448C275.914 35.413 276.866 26.4362 277.239 24.2837C277.914 20.3918 277.806 20.6819 278.558 20.7552C279.16 20.814 279.241 20.9112 279.48 21.8693ZM281.908 37.0698C282.169 37.288 282.245 37.7456 282.245 39.0979C282.245 40.0586 282.164 40.8948 282.065 40.9563C281.884 41.0686 281.639 41.0739 279.531 41.0092C278.899 40.9899 277.842 41.0518 277.182 41.1467L275.982 41.3193V39.2417V37.1643L276.764 36.9323C277.847 36.6115 281.475 36.7085 281.908 37.0698ZM282.014 42.5302C282.254 42.6829 282.283 43.5147 282.182 47.3031C282.056 52.0362 281.607 55.8354 280.809 58.9243C280.286 60.9469 280.191 61.1759 279.809 61.3231C279.174 61.5681 279.008 61.2687 278.171 58.3673C277.174 54.9114 276.316 49.5491 276.066 45.2026L275.927 42.7941L276.842 42.589C278.006 42.3276 281.631 42.2865 282.014 42.5302Z" fill="white"/>
</svg>
