<svg width="284" height="26" viewBox="0 0 284 26" fill="none" xmlns="http://www.w3.org/2000/svg">
<path opacity="0.4" d="M5.24977 10.064C5.95377 10.064 6.46043 9.896 6.76977 9.56C7.0791 9.224 7.23377 8.75467 7.23377 8.152C7.23377 7.88533 7.19377 7.64267 7.11377 7.424C7.03377 7.20533 6.9111 7.01867 6.74577 6.864C6.58577 6.704 6.38043 6.58133 6.12977 6.496C5.88443 6.41067 5.5911 6.368 5.24977 6.368H3.84177V10.064H5.24977ZM5.24977 4.344C6.0711 4.344 6.7751 4.44267 7.36177 4.64C7.95377 4.832 8.4391 5.09867 8.81777 5.44C9.20177 5.78133 9.48443 6.184 9.66577 6.648C9.8471 7.112 9.93777 7.61333 9.93777 8.152C9.93777 8.73333 9.84443 9.26667 9.65777 9.752C9.4711 10.2373 9.18577 10.6533 8.80177 11C8.41777 11.3467 7.92977 11.6187 7.33777 11.816C6.7511 12.008 6.0551 12.104 5.24977 12.104H3.84177V16H1.13777V4.344H5.24977ZM15.1016 9.824C15.4696 9.824 15.7816 9.77867 16.0376 9.688C16.299 9.592 16.5123 9.46133 16.6776 9.296C16.843 9.13067 16.963 8.93867 17.0376 8.72C17.1123 8.496 17.1496 8.256 17.1496 8C17.1496 7.488 16.9816 7.088 16.6456 6.8C16.315 6.512 15.8003 6.368 15.1016 6.368H14.0136V9.824H15.1016ZM20.8456 16H18.3976C17.9443 16 17.619 15.8293 17.4216 15.488L15.4856 12.104C15.395 11.96 15.2936 11.856 15.1816 11.792C15.0696 11.7227 14.9096 11.688 14.7016 11.688H14.0136V16H11.3096V4.344H15.1016C15.9443 4.344 16.6616 4.432 17.2536 4.608C17.851 4.77867 18.3363 5.01867 18.7096 5.328C19.0883 5.63733 19.363 6.00267 19.5336 6.424C19.7043 6.84533 19.7896 7.304 19.7896 7.8C19.7896 8.17867 19.739 8.536 19.6376 8.872C19.5363 9.208 19.387 9.52 19.1896 9.808C18.9923 10.0907 18.747 10.344 18.4536 10.568C18.1656 10.792 17.8323 10.976 17.4536 11.12C17.6296 11.2107 17.795 11.3253 17.9496 11.464C18.1043 11.5973 18.243 11.7573 18.3656 11.944L20.8456 16ZM33.0621 10.168C33.0621 11.0107 32.9155 11.7947 32.6221 12.52C32.3341 13.2453 31.9261 13.8773 31.3981 14.416C30.8701 14.9493 30.2328 15.368 29.4861 15.672C28.7448 15.976 27.9208 16.128 27.0141 16.128C26.1075 16.128 25.2808 15.976 24.5341 15.672C23.7875 15.368 23.1475 14.9493 22.6141 14.416C22.0861 13.8773 21.6755 13.2453 21.3821 12.52C21.0941 11.7947 20.9501 11.0107 20.9501 10.168C20.9501 9.32533 21.0941 8.54133 21.3821 7.816C21.6755 7.09067 22.0861 6.46133 22.6141 5.928C23.1475 5.39467 23.7875 4.976 24.5341 4.672C25.2808 4.368 26.1075 4.216 27.0141 4.216C27.9208 4.216 28.7448 4.37067 29.4861 4.68C30.2328 4.984 30.8701 5.40267 31.3981 5.936C31.9261 6.46933 32.3341 7.09867 32.6221 7.824C32.9155 8.54933 33.0621 9.33067 33.0621 10.168ZM30.2941 10.168C30.2941 9.592 30.2195 9.07467 30.0701 8.616C29.9208 8.152 29.7048 7.76 29.4221 7.44C29.1448 7.12 28.8035 6.87467 28.3981 6.704C27.9928 6.53333 27.5315 6.448 27.0141 6.448C26.4915 6.448 26.0248 6.53333 25.6141 6.704C25.2088 6.87467 24.8648 7.12 24.5821 7.44C24.3048 7.76 24.0915 8.152 23.9421 8.616C23.7928 9.07467 23.7181 9.592 23.7181 10.168C23.7181 10.7493 23.7928 11.272 23.9421 11.736C24.0915 12.1947 24.3048 12.584 24.5821 12.904C24.8648 13.224 25.2088 13.4693 25.6141 13.64C26.0248 13.8053 26.4915 13.888 27.0141 13.888C27.5315 13.888 27.9928 13.8053 28.3981 13.64C28.8035 13.4693 29.1448 13.224 29.4221 12.904C29.7048 12.584 29.9208 12.1947 30.0701 11.736C30.2195 11.272 30.2941 10.7493 30.2941 10.168ZM45.2294 10.168C45.2294 11.0107 45.0827 11.7893 44.7894 12.504C44.5014 13.2133 44.0934 13.8293 43.5654 14.352C43.0374 14.8693 42.4001 15.2747 41.6534 15.568C40.9121 15.856 40.0881 16 39.1814 16H34.6534V4.344H39.1814C40.0881 4.344 40.9121 4.49067 41.6534 4.784C42.4001 5.07733 43.0374 5.48267 43.5654 6C44.0934 6.51733 44.5014 7.13333 44.7894 7.848C45.0827 8.55733 45.2294 9.33067 45.2294 10.168ZM42.4614 10.168C42.4614 9.592 42.3867 9.072 42.2374 8.608C42.0881 8.144 41.8721 7.752 41.5894 7.432C41.3121 7.10667 40.9707 6.85867 40.5654 6.688C40.1601 6.512 39.6987 6.424 39.1814 6.424H37.3734V13.92H39.1814C39.6987 13.92 40.1601 13.8347 40.5654 13.664C40.9707 13.488 41.3121 13.24 41.5894 12.92C41.8721 12.5947 42.0881 12.2 42.2374 11.736C42.3867 11.272 42.4614 10.7493 42.4614 10.168ZM51.6893 13.864C52.0519 13.864 52.3746 13.8053 52.6573 13.688C52.9453 13.5653 53.1879 13.392 53.3853 13.168C53.5826 12.944 53.7319 12.672 53.8333 12.352C53.9399 12.0267 53.9933 11.6587 53.9933 11.248V4.344H56.6973V11.248C56.6973 11.9627 56.5799 12.6187 56.3453 13.216C56.1159 13.8133 55.7853 14.328 55.3533 14.76C54.9213 15.192 54.3959 15.528 53.7773 15.768C53.1586 16.008 52.4626 16.128 51.6893 16.128C50.9106 16.128 50.2119 16.008 49.5933 15.768C48.9746 15.528 48.4493 15.192 48.0173 14.76C47.5853 14.328 47.2546 13.8133 47.0253 13.216C46.7959 12.6187 46.6813 11.9627 46.6813 11.248V4.344H49.3853V11.24C49.3853 11.6507 49.4359 12.0187 49.5373 12.344C49.6439 12.664 49.7959 12.9387 49.9933 13.168C50.1906 13.392 50.4306 13.5653 50.7133 13.688C51.0013 13.8053 51.3266 13.864 51.6893 13.864ZM66.6656 12.984C66.7296 12.984 66.7936 12.9973 66.8576 13.024C66.9216 13.0453 66.983 13.0853 67.0416 13.144L68.1136 14.272C67.6443 14.8853 67.055 15.3493 66.3456 15.664C65.6416 15.9733 64.807 16.128 63.8416 16.128C62.9563 16.128 62.1616 15.9787 61.4576 15.68C60.759 15.376 60.1643 14.96 59.6736 14.432C59.1883 13.8987 58.815 13.2693 58.5536 12.544C58.2923 11.8133 58.1616 11.0213 58.1616 10.168C58.1616 9.29867 58.303 8.50133 58.5856 7.776C58.8683 7.04533 59.2656 6.416 59.7776 5.888C60.2896 5.36 60.903 4.94933 61.6176 4.656C62.3323 4.36267 63.119 4.216 63.9776 4.216C64.415 4.216 64.8256 4.256 65.2096 4.336C65.599 4.41067 65.9616 4.51733 66.2976 4.656C66.6336 4.78933 66.943 4.952 67.2256 5.144C67.5083 5.336 67.759 5.544 67.9776 5.768L67.0656 6.992C67.007 7.06667 66.9376 7.136 66.8576 7.2C66.7776 7.25867 66.6656 7.288 66.5216 7.288C66.4256 7.288 66.335 7.26667 66.2496 7.224C66.1643 7.18133 66.0736 7.13067 65.9776 7.072C65.8816 7.008 65.775 6.94133 65.6576 6.872C65.5456 6.79733 65.4096 6.73067 65.2496 6.672C65.095 6.608 64.911 6.55467 64.6976 6.512C64.4896 6.46933 64.2443 6.448 63.9616 6.448C63.5136 6.448 63.103 6.53067 62.7296 6.696C62.3616 6.86133 62.0416 7.104 61.7696 7.424C61.503 7.73867 61.295 8.128 61.1456 8.592C61.0016 9.05067 60.9296 9.576 60.9296 10.168C60.9296 10.7653 61.0096 11.296 61.1696 11.76C61.335 12.224 61.5563 12.616 61.8336 12.936C62.1163 13.2507 62.4443 13.4907 62.8176 13.656C63.191 13.8213 63.591 13.904 64.0176 13.904C64.263 13.904 64.487 13.8933 64.6896 13.872C64.8923 13.8453 65.0816 13.8053 65.2576 13.752C65.4336 13.6933 65.599 13.6187 65.7536 13.528C65.9083 13.432 66.0656 13.312 66.2256 13.168C66.2896 13.1147 66.359 13.072 66.4336 13.04C66.5083 13.0027 66.5856 12.984 66.6656 12.984ZM77.67 6.488H74.39V16H71.686V6.488H68.406V4.344H77.67V6.488Z" fill="white"/>
</svg>
