<svg width="76" height="75" viewBox="0 0 76 75" fill="none" xmlns="http://www.w3.org/2000/svg">
<rect x="0.666504" width="75" height="75" rx="37.5" fill="#16558F"/>
<path d="M43.7784 24.1069H32.5552C27.6802 24.1069 24.7739 27.0132 24.7739 31.8882V43.098C24.7739 47.9864 27.6802 50.8926 32.5552 50.8926H43.765C48.64 50.8926 51.5462 47.9864 51.5462 43.1114V31.8882C51.5596 27.0132 48.6534 24.1069 43.7784 24.1069ZM35.4079 39.2007C34.4971 40.5668 33.2382 41.6784 31.765 42.415C31.6311 42.4819 31.4704 42.5221 31.323 42.5221C30.948 42.5221 30.5998 42.3212 30.4257 41.973C30.1712 41.4775 30.3721 40.8748 30.8811 40.6203C32.0462 40.0444 33.0373 39.1605 33.7471 38.0891C33.9882 37.7275 33.9882 37.2721 33.7471 36.9105C33.0239 35.8391 32.0329 34.9551 30.8811 34.3793C30.3721 34.1382 30.1712 33.5355 30.4257 33.0266C30.6668 32.531 31.2695 32.3301 31.765 32.5846C33.2382 33.3212 34.4971 34.4328 35.4079 35.7989C36.1043 36.8301 36.1043 38.1694 35.4079 39.2007ZM44.8632 42.5221H39.5061C38.957 42.5221 38.5016 42.0668 38.5016 41.5176C38.5016 40.9685 38.957 40.5132 39.5061 40.5132H44.8632C45.4123 40.5132 45.8677 40.9685 45.8677 41.5176C45.8677 42.0668 45.4123 42.5221 44.8632 42.5221Z" fill="white"/>
</svg>
