<svg width="24" height="25" viewBox="0 0 24 25" fill="none" xmlns="http://www.w3.org/2000/svg">
<path d="M13.0183 2.77271C13.7481 2.76991 14.4778 2.77725 15.2073 2.79471L15.4013 2.80171C15.6253 2.80971 15.8463 2.81971 16.1133 2.83171C17.1773 2.88171 17.9033 3.04971 18.5403 3.29671C19.2003 3.55071 19.7563 3.89471 20.3123 4.45071C20.8207 4.95032 21.2141 5.55466 21.4653 6.22171C21.7123 6.85871 21.8803 7.58571 21.9303 8.64971C21.9423 8.91571 21.9523 9.13771 21.9603 9.36171L21.9663 9.55572C21.9841 10.2849 21.9918 11.0143 21.9893 11.7437L21.9903 12.4897V13.7997C21.9928 14.5295 21.9851 15.2592 21.9673 15.9887L21.9613 16.1827C21.9533 16.4067 21.9433 16.6277 21.9313 16.8947C21.8813 17.9587 21.7113 18.6847 21.4653 19.3217C21.215 19.9895 20.8214 20.5943 20.3123 21.0937C19.8123 21.602 19.2076 21.9955 18.5403 22.2467C17.9033 22.4937 17.1773 22.6617 16.1133 22.7117C15.8463 22.7237 15.6253 22.7337 15.4013 22.7417L15.2073 22.7477C14.4778 22.7655 13.7481 22.7732 13.0183 22.7707L12.2723 22.7717H10.9633C10.2336 22.7742 9.50385 22.7665 8.77432 22.7487L8.58032 22.7427C8.34293 22.7341 8.1056 22.7241 7.86832 22.7127C6.80432 22.6627 6.07832 22.4927 5.44032 22.2467C4.77301 21.9961 4.16856 21.6025 3.66932 21.0937C3.16037 20.594 2.76655 19.9893 2.51532 19.3217C2.26832 18.6847 2.10032 17.9587 2.05032 16.8947C2.03919 16.6574 2.02919 16.4201 2.02032 16.1827L2.01532 15.9887C1.99689 15.2592 1.98855 14.5295 1.99032 13.7997V11.7437C1.98753 11.0143 1.99487 10.2849 2.01232 9.55572L2.01932 9.36171C2.02732 9.13771 2.03732 8.91571 2.04932 8.64971C2.09932 7.58471 2.26732 6.85971 2.51432 6.22171C2.7657 5.55433 3.16029 4.95016 3.67032 4.45171C4.16922 3.94247 4.77328 3.54829 5.44032 3.29671C6.07832 3.04971 6.80332 2.88171 7.86832 2.83171L8.58032 2.80171L8.77432 2.79671C9.50351 2.77829 10.2329 2.76995 10.9623 2.77171L13.0183 2.77271ZM11.9903 7.77271C11.3278 7.76334 10.6701 7.88574 10.0553 8.13278C9.44052 8.37983 8.88097 8.74659 8.40917 9.21177C7.93737 9.67695 7.56272 10.2313 7.30701 10.8425C7.0513 11.4537 6.91961 12.1097 6.91961 12.7722C6.91961 13.4348 7.0513 14.0907 7.30701 14.702C7.56272 15.3132 7.93737 15.8675 8.40917 16.3327C8.88097 16.7978 9.44052 17.1646 10.0553 17.4116C10.6701 17.6587 11.3278 17.7811 11.9903 17.7717C13.3164 17.7717 14.5882 17.2449 15.5259 16.3072C16.4635 15.3696 16.9903 14.0978 16.9903 12.7717C16.9903 11.4456 16.4635 10.1739 15.5259 9.23618C14.5882 8.2985 13.3164 7.77271 11.9903 7.77271ZM11.9903 9.77272C12.3888 9.76537 12.7848 9.83751 13.1551 9.98492C13.5254 10.1323 13.8627 10.3521 14.1471 10.6313C14.4315 10.9105 14.6575 11.2435 14.8118 11.6111C14.966 11.9786 15.0455 12.3731 15.0456 12.7717C15.0457 13.1703 14.9663 13.5649 14.8122 13.9324C14.658 14.3 14.4322 14.6332 14.1478 14.9125C13.8635 15.1917 13.5263 15.4116 13.156 15.5591C12.7858 15.7067 12.3898 15.7789 11.9913 15.7717C11.1957 15.7717 10.4326 15.4556 9.87 14.893C9.30739 14.3304 8.99132 13.5674 8.99132 12.7717C8.99132 11.9761 9.30739 11.213 9.87 10.6504C10.4326 10.0878 11.1957 9.77171 11.9913 9.77171L11.9903 9.77272ZM17.2403 6.27271C16.9177 6.28563 16.6126 6.42287 16.3889 6.65569C16.1652 6.88851 16.0403 7.19885 16.0403 7.52171C16.0403 7.84458 16.1652 8.15492 16.3889 8.38774C16.6126 8.62056 16.9177 8.7578 17.2403 8.77071C17.5718 8.77071 17.8898 8.63902 18.1242 8.4046C18.3586 8.17018 18.4903 7.85224 18.4903 7.52071C18.4903 7.18919 18.3586 6.87125 18.1242 6.63683C17.8898 6.40241 17.5718 6.27071 17.2403 6.27071V6.27271Z" fill="white"/>
</svg>
