<svg width="40" height="40" viewBox="0 0 40 40" fill="none" xmlns="http://www.w3.org/2000/svg">
<path d="M22.0018 0.849569C23.4055 0.844183 24.8093 0.858291 26.2126 0.891889L26.5858 0.905354C27.0167 0.920743 27.4418 0.939979 27.9554 0.963062C30.0021 1.05924 31.3986 1.38241 32.624 1.85754C33.8936 2.34614 34.9631 3.00786 36.0326 4.07739C37.0105 5.03844 37.7674 6.20095 38.2505 7.4841C38.7257 8.70944 39.0488 10.1079 39.145 12.1546C39.1681 12.6663 39.1873 13.0934 39.2027 13.5242L39.2143 13.8974C39.2485 15.3001 39.2632 16.7032 39.2585 18.1063L39.2604 19.5413V22.0612C39.2652 23.465 39.2504 24.8687 39.2162 26.272L39.2047 26.6452C39.1893 27.0761 39.17 27.5012 39.1469 28.0148C39.0508 30.0615 38.7238 31.4581 38.2505 32.6834C37.769 33.9679 37.0119 35.1314 36.0326 36.0921C35.0707 37.0699 33.9076 37.8267 32.624 38.31C31.3986 38.7851 30.0021 39.1083 27.9554 39.2045C27.4418 39.2275 27.0167 39.2468 26.5858 39.2622L26.2126 39.2737C24.8093 39.3079 23.4055 39.3226 22.0018 39.3179L20.5668 39.3199H18.0488C16.645 39.3246 15.2413 39.3099 13.838 39.2756L13.4648 39.2641C13.0082 39.2475 12.5516 39.2283 12.0952 39.2064C10.0485 39.1102 8.65194 38.7832 7.42468 38.31C6.14102 37.8278 4.9783 37.0708 4.01796 36.0921C3.03893 35.1308 2.28137 33.9675 1.79812 32.6834C1.32298 31.4581 0.999816 30.0615 0.903636 28.0148C0.882212 27.5584 0.862976 27.1018 0.845928 26.6452L0.83631 26.272C0.800845 24.8687 0.784813 23.465 0.788219 22.0612V18.1063C0.782851 16.7032 0.796959 15.3001 0.830539 13.8974L0.844004 13.5242C0.859393 13.0934 0.878629 12.6663 0.901712 12.1546C0.997893 10.106 1.32106 8.71137 1.79619 7.4841C2.27973 6.20032 3.03878 5.03813 4.01989 4.07931C4.97957 3.09972 6.14155 2.34147 7.42468 1.85754C8.65194 1.38241 10.0466 1.05924 12.0952 0.963062L13.4648 0.905354L13.838 0.895736C15.2407 0.860289 16.6438 0.844258 18.0469 0.847646L22.0018 0.849569ZM20.0243 10.4676C18.75 10.4496 17.4847 10.685 16.3021 11.1603C15.1195 11.6355 14.0431 12.341 13.1356 13.2358C12.228 14.1306 11.5074 15.1969 11.0155 16.3727C10.5236 17.5484 10.2703 18.8102 10.2703 20.0847C10.2703 21.3592 10.5236 22.621 11.0155 23.7968C11.5074 24.9725 12.228 26.0388 13.1356 26.9336C14.0431 27.8284 15.1195 28.534 16.3021 29.0092C17.4847 29.4844 18.75 29.7198 20.0243 29.7018C22.5752 29.7018 25.0216 28.6885 26.8253 26.8848C28.6291 25.081 29.6424 22.6346 29.6424 20.0838C29.6424 17.5329 28.6291 15.0865 26.8253 13.2828C25.0216 11.479 22.5752 10.4676 20.0243 10.4676ZM20.0243 14.3148C20.7909 14.3007 21.5526 14.4395 22.2649 14.7231C22.9773 15.0066 23.626 15.4293 24.1731 15.9664C24.7203 16.5034 25.1549 17.1442 25.4517 17.8511C25.7484 18.558 25.9014 19.317 25.9015 20.0837C25.9016 20.8504 25.749 21.6095 25.4524 22.3165C25.1559 23.0236 24.7215 23.6644 24.1745 24.2017C23.6275 24.739 22.979 25.1618 22.2667 25.4456C21.5545 25.7294 20.7928 25.8685 20.0263 25.8546C18.4957 25.8546 17.0279 25.2466 15.9457 24.1644C14.8634 23.0821 14.2554 21.6143 14.2554 20.0838C14.2554 18.5532 14.8634 17.0854 15.9457 16.0032C17.0279 14.9209 18.4957 14.3129 20.0263 14.3129L20.0243 14.3148ZM30.1233 7.58221C29.5027 7.60705 28.9158 7.87104 28.4855 8.3189C28.0552 8.76675 27.8149 9.36373 27.8149 9.9848C27.8149 10.6059 28.0552 11.2028 28.4855 11.6507C28.9158 12.0986 29.5027 12.3626 30.1233 12.3874C30.761 12.3874 31.3726 12.1341 31.8235 11.6831C32.2745 11.2322 32.5278 10.6206 32.5278 9.98287C32.5278 9.34516 32.2745 8.73356 31.8235 8.28263C31.3726 7.83169 30.761 7.57836 30.1233 7.57836V7.58221Z" fill="#757575"/>
</svg>
