<svg width="42" height="42" viewBox="0 0 42 42" fill="none" xmlns="http://www.w3.org/2000/svg">
    <path d="M20.9714 0.885397C9.81742 0.885397 0.773438 9.92937 0.773438 21.0833C0.773438 32.2373 9.81742 41.2812 20.9714 41.2812C32.1253 41.2812 41.1693 32.2373 41.1693 21.0833C41.1693 9.92937 32.1253 0.885397 20.9714 0.885397ZM30.6781 16.1105C30.6916 16.3224 30.6916 16.5433 30.6916 16.7597C30.6916 23.3781 25.6511 31.0019 16.4403 31.0019C13.6 31.0019 10.9671 30.1769 8.74891 28.7567C9.15467 28.8018 9.5424 28.8198 9.95718 28.8198C12.3016 28.8198 14.4566 28.0263 16.1743 26.6828C13.9742 26.6377 12.1257 25.195 11.4946 23.2113C12.2655 23.324 12.9598 23.324 13.7533 23.1211C12.6204 22.891 11.6022 22.2757 10.8716 21.3799C10.1409 20.4841 9.74296 19.3629 9.74528 18.2069V18.1438C10.408 18.518 11.188 18.7479 12.004 18.7795C11.318 18.3223 10.7554 17.7029 10.3661 16.9762C9.97685 16.2496 9.77289 15.4381 9.77233 14.6137C9.77233 13.6804 10.0158 12.8283 10.4531 12.0889C11.7105 13.6368 13.2796 14.9029 15.0583 15.8046C16.8371 16.7064 18.7857 17.2239 20.7775 17.3233C20.0697 13.9194 22.6124 11.1647 25.6692 11.1647C27.1119 11.1647 28.4103 11.7688 29.3255 12.7427C30.4572 12.5308 31.5392 12.107 32.504 11.5389C32.1298 12.6976 31.3453 13.6759 30.3039 14.2936C31.3138 14.1854 32.2876 13.9058 33.1893 13.5136C32.5085 14.5145 31.6564 15.4026 30.6781 16.1105Z" stroke="currentColor" fill="#757575"/>
</svg>
