<svg width="46" height="46" viewBox="0 0 46 46" fill="none" xmlns="http://www.w3.org/2000/svg">
    <path d="M22.9178 0.924215C10.679 0.924215 0.757812 10.8454 0.757812 23.0842C0.757812 35.323 10.679 45.2442 22.9178 45.2442C35.1566 45.2442 45.0778 35.323 45.0778 23.0842C45.0778 10.8454 35.1566 0.924215 22.9178 0.924215ZM17.4932 32.2691H13.0058V17.8281H17.4932V32.2691ZM15.2218 16.0553C13.8045 16.0553 12.8881 15.0512 12.8881 13.8093C12.8881 12.5421 13.8322 11.5679 15.2795 11.5679C16.7269 11.5679 17.6133 12.5421 17.641 13.8093C17.641 15.0512 16.7269 16.0553 15.2218 16.0553ZM33.8824 32.2691H29.395V24.2661C29.395 22.4033 28.744 21.1383 27.1213 21.1383C25.8817 21.1383 25.1454 21.9947 24.8199 22.8188C24.6998 23.1119 24.6698 23.5274 24.6698 23.9406V32.2668H20.1801V22.4333C20.1801 20.6305 20.1224 19.1231 20.0624 17.8258H23.9612L24.1666 19.8318H24.2566C24.8476 18.89 26.2949 17.5004 28.7163 17.5004C31.6687 17.5004 33.8824 19.4786 33.8824 23.7305V32.2691Z" stroke="currentColor" fill="#757575"/>
</svg>
