<svg width="21" height="20" viewBox="0 0 21 20" fill="none" xmlns="http://www.w3.org/2000/svg">
<path d="M14.6667 2.91655C14.6667 2.68643 14.4801 2.49988 14.25 2.49988H12.1667C9.98276 2.3911 8.12106 4.06663 8 6.24988V8.49988H5.91667C5.68655 8.49988 5.5 8.68643 5.5 8.91655V11.0832C5.5 11.3133 5.68655 11.4999 5.91667 11.4999H8V17.0832C8 17.3133 8.18655 17.4999 8.41667 17.4999H10.9167C11.1468 17.4999 11.3333 17.3133 11.3333 17.0832V11.4999H13.5167C13.7073 11.5026 13.8755 11.3756 13.925 11.1916L14.525 9.02488C14.5586 8.90011 14.5324 8.76681 14.4541 8.66403C14.3758 8.56124 14.2542 8.50061 14.125 8.49988H11.3333V6.24988C11.3763 5.82247 11.7371 5.49773 12.1667 5.49988H14.25C14.4801 5.49988 14.6667 5.31334 14.6667 5.08322V2.91655Z" fill="#637381"/>
</svg>
