<svg width="17" height="18" viewBox="0 0 17 18" fill="none" xmlns="http://www.w3.org/2000/svg">
<path fill-rule="evenodd" clip-rule="evenodd" d="M5.06456 0.716748C5.95345 0.67647 6.23713 0.666748 8.50033 0.666748C10.7635 0.666748 11.0472 0.67647 11.9361 0.716748C13.291 0.778554 14.4802 1.1105 15.435 2.06536C16.3903 3.02057 16.7219 4.21015 16.7837 5.56432C16.8239 6.45321 16.8337 6.73689 16.8337 9.00008C16.8337 11.2633 16.8239 11.547 16.7837 12.4358C16.7219 13.7907 16.3899 14.9799 15.435 15.9348C14.4798 16.89 13.2899 17.2216 11.9361 17.2834C11.0472 17.3237 10.7635 17.3334 8.50033 17.3334C6.23713 17.3334 5.95345 17.3237 5.06456 17.2834C3.7097 17.2216 2.52046 16.8897 1.5656 15.9348C0.610395 14.9796 0.278798 13.79 0.216992 12.4358C0.176714 11.547 0.166992 11.2633 0.166992 9.00008C0.166992 6.73689 0.176714 6.45321 0.216992 5.56432C0.278798 4.20946 0.610742 3.02022 1.5656 2.06536C2.52081 1.11015 3.7104 0.778554 5.06456 0.716748ZM8.50033 3.44453C6.99164 3.44453 6.80241 3.45078 6.2097 3.47786C5.30692 3.51918 4.51387 3.74036 3.87706 4.37682C3.2406 5.01328 3.01942 5.80633 2.9781 6.70946C2.95102 7.30217 2.94477 7.4914 2.94477 9.00008C2.94477 10.5088 2.95102 10.698 2.9781 11.2907C3.01942 12.1935 3.2406 12.9865 3.87706 13.6233C4.51352 14.2598 5.30658 14.481 6.2097 14.5223C6.80241 14.5494 6.99164 14.5556 8.50033 14.5556C10.009 14.5556 10.1982 14.5494 10.791 14.5223C11.6937 14.481 12.4868 14.2598 13.1236 13.6233C13.76 12.9869 13.9812 12.1938 14.0225 11.2907C14.0496 10.698 14.0559 10.5088 14.0559 9.00008C14.0559 7.4914 14.0496 7.30217 14.0225 6.70946C13.9812 5.80668 13.76 5.01362 13.1236 4.37682C12.4871 3.74036 11.6941 3.51918 10.791 3.47786C10.1982 3.45078 10.009 3.44453 8.50033 3.44453ZM8.50033 4.44557C9.98366 4.44557 10.1594 4.45112 10.7451 4.47786C11.3774 4.50668 11.9642 4.63341 12.4156 5.0848C12.867 5.53619 12.9937 6.123 13.0225 6.75529C13.0493 7.34105 13.0548 7.51675 13.0548 9.00008C13.0548 10.4834 13.0493 10.6591 13.0225 11.2449C12.9937 11.8772 12.867 12.464 12.4156 12.9154C11.9642 13.3667 11.3774 13.4935 10.7451 13.5223C10.1594 13.549 9.98366 13.5546 8.50033 13.5546C7.01699 13.5546 6.8413 13.549 6.25553 13.5223C5.62324 13.4935 5.03644 13.3667 4.58505 12.9154C4.13366 12.464 4.00692 11.8772 3.9781 11.2449C3.95137 10.6591 3.94581 10.4834 3.94581 9.00008C3.94581 7.51675 3.95137 7.34105 3.9781 6.75529C4.00692 6.123 4.13366 5.53619 4.58505 5.0848C5.03644 4.63341 5.62324 4.50668 6.25553 4.47786C6.8413 4.45112 7.01699 4.44557 8.50033 4.44557ZM5.64755 9.00008C5.64755 7.42474 6.92463 6.1473 8.50033 6.1473C10.076 6.1473 11.3531 7.42474 11.3531 9.00008C11.3531 10.5754 10.0757 11.8529 8.50033 11.8529C6.92498 11.8529 5.64755 10.5754 5.64755 9.00008ZM6.64859 9.00008C6.64859 10.0227 7.47741 10.8518 8.50033 10.8518C9.52324 10.8518 10.3521 10.023 10.3521 9.00008C10.3521 7.97751 9.52324 7.14835 8.50033 7.14835C7.47776 7.14835 6.64859 7.97716 6.64859 9.00008ZM11.466 6.70112C11.8341 6.70112 12.1326 6.40265 12.1326 6.03446C12.1326 5.66627 11.8341 5.36779 11.466 5.36779C11.0978 5.36779 10.7993 5.66627 10.7993 6.03446C10.7993 6.40265 11.0978 6.70112 11.466 6.70112Z" fill="#637381"/>
</svg>
