<svg width="21" height="20" viewBox="0 0 21 20" fill="none" xmlns="http://www.w3.org/2000/svg">
    <path d="M13.125 7.00003C11.835 6.9956 10.5963 7.50436 9.68181 8.41415C8.76733 9.32394 8.25221 10.5601 8.25 11.85V16.75C8.25 16.9489 8.32902 17.1397 8.46967 17.2804C8.61032 17.421 8.80109 17.5 9 17.5H10.75C11.1642 17.5 11.5 17.1642 11.5 16.75V11.85C11.4997 11.3906 11.6948 10.9527 12.0367 10.6458C12.3786 10.3389 12.8349 10.192 13.2917 10.2417C14.13 10.3473 14.7566 11.0635 14.75 11.9084V16.75C14.75 17.1642 15.0858 17.5 15.5 17.5H17.25C17.6642 17.5 18 17.1642 18 16.75V11.85C17.9978 10.5601 17.4827 9.32394 16.5682 8.41415C15.6537 7.50436 14.415 6.9956 13.125 7.00003Z" fill="#637381"/>
    <rect x="3" y="7.75" width="3.75" height="9.75" rx="0.9"  fill="#637381"/>
    <circle cx="4.875" cy="4.375" r="1.875" fill="#637381"/>
</svg>
