<svg width="97" height="93" viewBox="0 0 97 93" fill="none" xmlns="http://www.w3.org/2000/svg">
<path d="M40.2989 47.425H7.12603C3.19443 47.425 0 44.2305 0 40.2989V7.12603C0 3.19443 3.19443 0 7.12603 0H40.2989C44.2305 0 47.425 3.19443 47.425 7.12603V40.2989C47.425 44.2305 44.2305 47.425 40.2989 47.425Z" fill="#16558F"/>
<path d="M21.071 19.4123C21.071 18.4294 21.9311 17.5694 23.774 17.5694C25.8627 17.5694 27.337 18.1222 28.4428 18.8594V15.5421C27.5828 15.0507 26.2927 14.8049 24.5726 14.6821V12.4091H22.7911V14.6821C21.3168 14.8049 20.0881 15.3578 19.1667 16.2793C18.2452 17.2008 17.8152 18.3065 17.8152 19.5966C17.8152 24.6954 26.3541 24.8182 26.3541 27.6441C26.3541 28.627 25.1255 29.4256 23.7126 29.4256C20.8868 29.4256 18.6138 28.197 18.1223 27.8284V31.2685C19.5353 32.0057 21.1325 32.3743 22.7911 32.3743V34.9544H24.5726V32.2514C26.1698 32.0671 27.4599 31.5757 28.3199 30.7156C29.18 29.8556 29.61 28.8113 29.61 27.3984C29.61 22.0538 21.071 22.4224 21.071 19.4123Z" fill="white"/>
<path d="M50.0665 84.7752H16.8936C12.962 84.7752 9.76758 81.5807 9.76758 77.6491V44.4763C9.76758 40.5447 12.962 37.3502 16.8936 37.3502H50.0665C53.9981 37.3502 57.1925 40.5447 57.1925 44.4763V77.6491C57.1925 81.5807 53.9981 84.7752 50.0665 84.7752Z" fill="#0BBAFF"/>
<path d="M40.5447 72.1203H26.4155V69.4788C28.5042 68.8645 29.5485 67.4515 29.5485 65.24V62.6599H26.7227V60.0184H29.5485V56.2711C29.5485 54.4281 30.1628 52.9538 31.33 51.7866C32.4972 50.6194 34.033 50.0051 35.8759 50.0051C37.1046 50.0051 38.2718 50.1894 39.3161 50.6194V53.6909C38.3332 53.1381 37.3503 52.8309 36.2445 52.8309C34.033 52.8309 32.9272 54.1824 32.9272 56.8854V60.0184H37.2274V62.6599H32.9272V64.7486C32.9272 66.8987 31.9443 68.4344 29.9785 69.2945H40.5447V72.1203Z" fill="white"/>
<path d="M89.8739 92.7613H56.701C52.7694 92.7613 49.575 89.5668 49.575 85.6352V52.4623C49.575 48.5307 52.7694 45.3363 56.701 45.3363H89.8739C93.8055 45.3363 96.9999 48.5307 96.9999 52.4623V85.6352C96.9999 89.5668 93.8055 92.7613 89.8739 92.7613Z" fill="#07A2EF"/>
<path d="M80.8435 58.544L75.6832 68.0044H79.6148V70.3388H74.9461V72.9803H79.6148V75.3147H74.9461V79.3692H71.6288V75.3147H66.7757V72.9803H71.6288V70.3388H66.7757V68.0044H70.7687L65.6699 58.544H69.2944L72.6731 65.7314C72.9188 66.2843 73.1645 66.7758 73.2874 67.2672H73.3488C73.4717 66.8986 73.656 66.3458 74.0246 65.6086L77.3419 58.4825H80.8435V58.544Z" fill="white"/>
<path d="M79.3077 56.5782H46.1348C42.2032 56.5782 39.0088 53.3838 39.0088 49.4522V16.2793C39.0088 12.3477 42.2032 9.15326 46.1348 9.15326H79.3077C83.2393 9.15326 86.4338 12.3477 86.4338 16.2793V49.4522C86.4338 53.3838 83.2393 56.5782 79.3077 56.5782Z" fill="#0583D2"/>
<path d="M68.1887 28.5042H55.3496V30.8385H68.1887V28.5042Z" fill="white"/>
<path d="M68.1887 33.5415H55.3496V35.8759H68.1887V33.5415Z" fill="white"/>
<path d="M70.0318 25.2483V22.4224C70.0318 22.4224 68.8031 21.8081 65.6087 21.8081C62.3529 21.8081 57.1926 24.5111 57.1926 33.2958C57.1926 37.7802 58.9127 43.9848 65.793 43.9848C69.4175 43.9848 70.0932 43.0633 70.0932 43.0633V40.3604C70.0932 40.3604 68.496 41.4047 66.3459 41.4047C64.2572 41.4047 60.7556 39.9303 60.7556 33.1729C60.7556 26.4155 64.2572 24.5111 66.5916 24.5111C68.9874 24.3268 70.0318 25.2483 70.0318 25.2483Z" fill="white"/>
</svg>
