<svg width="21" height="20" viewBox="0 0 21 20" fill="none" xmlns="http://www.w3.org/2000/svg">
<path d="M8.83285 15.8331C8.63814 15.8335 8.44944 15.7657 8.29952 15.6415C8.12909 15.5002 8.02189 15.2969 8.00157 15.0764C7.98124 14.856 8.04947 14.6365 8.19118 14.4665L11.9245 9.99979L8.32452 5.52479C8.18471 5.35263 8.11929 5.13184 8.14275 4.91131C8.16621 4.69077 8.27662 4.48869 8.44952 4.34979C8.62382 4.19643 8.85421 4.12273 9.08516 4.14646C9.31612 4.17019 9.5267 4.28919 9.66618 4.47479L13.6912 9.47479C13.9439 9.78229 13.9439 10.2256 13.6912 10.5331L9.52452 15.5331C9.35496 15.7377 9.09805 15.8491 8.83285 15.8331Z" fill="#637381"/>
</svg>
