<svg width="571" height="312" viewBox="0 0 571 312" fill="none" xmlns="http://www.w3.org/2000/svg">
<g clip-path="url(#clip0_7_16066)">
<circle opacity="0.5" cx="285.5" cy="241.5" r="146.5" stroke="black" stroke-width="2"/>
<circle opacity="0.5" cx="285.5" cy="241.5" r="216.5" stroke="black" stroke-width="2"/>
<rect y="-112" width="571" height="571" fill="url(#paint0_linear_7_16066)"/>
<path d="M308.75 226.75H262.25C255.818 226.75 250.625 231.904 250.625 238.259V280.535C250.625 286.89 255.818 292.044 262.25 292.044H265.195C268.295 292.044 271.24 293.245 273.41 295.415L280.036 301.964C283.059 304.948 287.98 304.948 291.002 301.964L297.629 295.415C299.799 293.245 302.783 292.044 305.844 292.044H308.75C315.183 292.044 320.375 286.89 320.375 280.535V238.259C320.375 231.904 315.183 226.75 308.75 226.75ZM279.222 269.414C280.811 269.414 282.129 270.731 282.129 272.32C282.129 273.909 280.811 275.226 279.222 275.226H268.837C267.132 275.226 265.544 274.412 264.536 273.017C263.568 271.7 263.335 270.072 263.8 268.522C265.156 264.376 268.489 262.129 271.434 260.114C274.534 258.021 276.278 256.704 276.278 254.456C276.278 252.441 274.65 250.814 272.635 250.814C270.62 250.814 269.031 252.48 269.031 254.495C269.031 256.084 267.714 257.401 266.125 257.401C264.536 257.401 263.219 256.084 263.219 254.495C263.219 249.302 267.442 245.04 272.674 245.04C277.905 245.04 282.129 249.264 282.129 254.495C282.129 259.959 278.021 262.749 274.728 264.996C272.674 266.391 270.736 267.709 269.767 269.453H279.222V269.414ZM304.875 269.685H304.061V272.359C304.061 273.948 302.744 275.265 301.155 275.265C299.566 275.265 298.249 273.948 298.249 272.359V269.685H290.654C290.654 269.685 290.654 269.685 290.615 269.685C288.716 269.685 286.972 268.677 286.004 267.05C285.035 265.384 285.035 263.33 286.004 261.703C288.639 257.169 291.7 252.015 294.49 247.52C295.73 245.544 298.094 244.653 300.302 245.273C302.511 245.931 304.061 247.946 304.023 250.271V263.911H304.875C306.464 263.911 307.781 265.229 307.781 266.818C307.781 268.406 306.464 269.685 304.875 269.685Z" fill="black"/>
<path d="M298.249 263.873V252.48C295.963 256.2 293.599 260.191 291.468 263.834H298.249V263.873Z" fill="black"/>
</g>
<defs>
<linearGradient id="paint0_linear_7_16066" x1="285.5" y1="-112" x2="285.5" y2="459" gradientUnits="userSpaceOnUse">
<stop stop-color="white" stop-opacity="0"/>
<stop offset="0.36961" stop-color="white" stop-opacity="0.83"/>
<stop offset="0.758178" stop-color="white"/>
</linearGradient>
<clipPath id="clip0_7_16066">
<rect width="571" height="312" fill="white"/>
</clipPath>
</defs>
</svg>
