<svg width="21" height="20" viewBox="0 0 21 20" fill="none" xmlns="http://www.w3.org/2000/svg">
<path d="M7.23326 16.6667C9.72277 16.75 12.1402 15.823 13.9357 14.0965C15.7312 12.37 16.7522 9.99085 16.7666 7.5C17.3313 6.80117 17.7506 5.99652 17.9999 5.13333C18.0379 4.99402 17.9907 4.84537 17.8791 4.75364C17.7676 4.6619 17.6126 4.64416 17.4833 4.70833C16.8775 4.99994 16.1532 4.87251 15.6833 4.39166C15.0922 3.74444 14.2643 3.36413 13.3882 3.33744C12.5121 3.31075 11.6626 3.63995 11.0333 4.25C10.1657 5.09016 9.80204 6.32356 10.0749 7.5C7.28326 7.66666 5.3666 6.34166 3.83326 4.525C3.73914 4.4184 3.59089 4.37756 3.45545 4.4209C3.32001 4.46424 3.22302 4.58356 3.20826 4.725C2.61003 8.04347 4.13899 11.3839 7.0416 13.1C6.0913 14.1899 4.75677 14.8705 3.3166 15C3.15841 15.0262 3.03441 15.1501 3.00805 15.3083C2.98169 15.4665 3.05881 15.6239 3.19993 15.7C4.45286 16.3261 5.83262 16.6568 7.23326 16.6667Z" fill="#637381"/>
</svg>
