<svg width="75" height="75" viewBox="0 0 75 75" fill="none" xmlns="http://www.w3.org/2000/svg">
<rect width="75" height="75" rx="37.5" fill="#0082FF"/>
<path d="M43.8615 26.1963V24.107C43.8615 23.5579 43.4061 23.1025 42.857 23.1025C42.3079 23.1025 41.8525 23.5579 41.8525 24.107V26.1159H33.1472V24.107C33.1472 23.5579 32.6918 23.1025 32.1427 23.1025C31.5936 23.1025 31.1382 23.5579 31.1382 24.107V26.1963C27.5222 26.5311 25.7677 28.6874 25.4999 31.8883C25.4731 32.2766 25.7945 32.5981 26.1695 32.5981H48.8302C49.2186 32.5981 49.54 32.2633 49.4999 31.8883C49.232 28.6874 47.4775 26.5311 43.8615 26.1963Z" fill="white"/>
<path d="M48.2141 34.6072H26.7856C26.049 34.6072 25.4463 35.2099 25.4463 35.9465V44.1965C25.4463 48.2143 27.4552 50.8929 32.1427 50.8929H42.857C47.5445 50.8929 49.5534 48.2143 49.5534 44.1965V35.9465C49.5534 35.2099 48.9508 34.6072 48.2141 34.6072ZM33.7633 45.817C33.6963 45.8706 33.6293 45.9375 33.5624 45.9777C33.482 46.0313 33.4016 46.0715 33.3213 46.0983C33.2409 46.1384 33.1606 46.1652 33.0802 46.1786C32.9865 46.192 32.9061 46.2054 32.8124 46.2054C32.6383 46.2054 32.4641 46.1652 32.3034 46.0983C32.1293 46.0313 31.9954 45.9375 31.8615 45.817C31.6204 45.5625 31.4731 45.2143 31.4731 44.8661C31.4731 44.5179 31.6204 44.1697 31.8615 43.9152C31.9954 43.7947 32.1293 43.7009 32.3034 43.634C32.5445 43.5268 32.8124 43.5 33.0802 43.5536C33.1606 43.567 33.2409 43.5938 33.3213 43.634C33.4016 43.6607 33.482 43.7009 33.5624 43.7545C33.6293 43.8081 33.6963 43.8616 33.7633 43.9152C34.0043 44.1697 34.1516 44.5179 34.1516 44.8661C34.1516 45.2143 34.0043 45.5625 33.7633 45.817ZM33.7633 41.1295C33.5088 41.3706 33.1606 41.5179 32.8124 41.5179C32.4641 41.5179 32.1159 41.3706 31.8615 41.1295C31.6204 40.875 31.4731 40.5268 31.4731 40.1786C31.4731 39.8304 31.6204 39.4822 31.8615 39.2277C32.2365 38.8527 32.8258 38.7322 33.3213 38.9465C33.4954 39.0134 33.6427 39.1072 33.7633 39.2277C34.0043 39.4822 34.1516 39.8304 34.1516 40.1786C34.1516 40.5268 34.0043 40.875 33.7633 41.1295ZM38.4508 45.817C38.1963 46.0581 37.8481 46.2054 37.4999 46.2054C37.1516 46.2054 36.8034 46.0581 36.549 45.817C36.3079 45.5625 36.1606 45.2143 36.1606 44.8661C36.1606 44.5179 36.3079 44.1697 36.549 43.9152C37.0445 43.4197 37.9552 43.4197 38.4508 43.9152C38.6918 44.1697 38.8391 44.5179 38.8391 44.8661C38.8391 45.2143 38.6918 45.5625 38.4508 45.817ZM38.4508 41.1295C38.3838 41.1831 38.3168 41.2366 38.2499 41.2902C38.1695 41.3438 38.0891 41.384 38.0088 41.4107C37.9284 41.4509 37.8481 41.4777 37.7677 41.4911C37.674 41.5045 37.5936 41.5179 37.4999 41.5179C37.1516 41.5179 36.8034 41.3706 36.549 41.1295C36.3079 40.875 36.1606 40.5268 36.1606 40.1786C36.1606 39.8304 36.3079 39.4822 36.549 39.2277C36.6695 39.1072 36.8168 39.0134 36.9909 38.9465C37.4865 38.7322 38.0758 38.8527 38.4508 39.2277C38.6918 39.4822 38.8391 39.8304 38.8391 40.1786C38.8391 40.5268 38.6918 40.875 38.4508 41.1295ZM43.1383 45.817C42.8838 46.0581 42.5356 46.2054 42.1874 46.2054C41.8391 46.2054 41.4909 46.0581 41.2365 45.817C40.9954 45.5625 40.8481 45.2143 40.8481 44.8661C40.8481 44.5179 40.9954 44.1697 41.2365 43.9152C41.732 43.4197 42.6427 43.4197 43.1383 43.9152C43.3793 44.1697 43.5266 44.5179 43.5266 44.8661C43.5266 45.2143 43.3793 45.5625 43.1383 45.817ZM43.1383 41.1295C43.0713 41.1831 43.0043 41.2366 42.9374 41.2902C42.857 41.3438 42.7766 41.384 42.6963 41.4107C42.6159 41.4509 42.5356 41.4777 42.4552 41.4911C42.3615 41.5045 42.2677 41.5179 42.1874 41.5179C41.8391 41.5179 41.4909 41.3706 41.2365 41.1295C40.9954 40.875 40.8481 40.5268 40.8481 40.1786C40.8481 39.8304 40.9954 39.4822 41.2365 39.2277C41.3704 39.1072 41.5043 39.0134 41.6784 38.9465C41.9195 38.8393 42.1874 38.8125 42.4552 38.8661C42.5356 38.8795 42.6159 38.9063 42.6963 38.9465C42.7766 38.9732 42.857 39.0134 42.9374 39.067C43.0043 39.1206 43.0713 39.1741 43.1383 39.2277C43.3793 39.4822 43.5266 39.8304 43.5266 40.1786C43.5266 40.5268 43.3793 40.875 43.1383 41.1295Z" fill="white"/>
</svg>
