<svg width="86" height="14" viewBox="0 0 86 14" fill="none" xmlns="http://www.w3.org/2000/svg">
<path opacity="0.4" d="M7.152 10.84V13H0.128V1.344H2.832V10.84H7.152ZM11.2543 3.424V6.144H14.9183V8.144H11.2543V10.92H16.0382V13H8.53425V1.344H16.0382V3.424H11.2543ZM26.0821 3.488H22.8021V13H20.0981V3.488H16.8181V1.344H26.0821V3.488ZM28.8401 0.575999C29.1281 1.03467 29.3228 1.50667 29.4241 1.992C29.5255 2.47733 29.5308 2.95733 29.4401 3.432C29.3548 3.90133 29.1761 4.352 28.9041 4.784C28.6321 5.216 28.2695 5.608 27.8161 5.96L27.0321 5.496C26.9628 5.45867 26.9148 5.41333 26.8881 5.36C26.8615 5.30133 26.8481 5.24533 26.8481 5.192C26.8535 5.13333 26.8668 5.08 26.8881 5.032C26.9148 4.97867 26.9468 4.93333 26.9841 4.896C27.0428 4.832 27.1068 4.744 27.1761 4.632C27.2455 4.52 27.3095 4.38933 27.3681 4.24C27.4268 4.09067 27.4721 3.928 27.5041 3.752C27.5415 3.57067 27.5548 3.38133 27.5441 3.184C27.5335 2.98133 27.4961 2.77333 27.4321 2.56C27.3681 2.34133 27.2641 2.12 27.1201 1.896C27.0028 1.70933 26.9708 1.54933 27.0241 1.416C27.0828 1.28267 27.1921 1.18667 27.3521 1.128L28.8401 0.575999ZM37.5211 3.712C37.4411 3.84 37.3558 3.936 37.2651 4C37.1798 4.064 37.0678 4.096 36.9291 4.096C36.8065 4.096 36.6731 4.05867 36.5291 3.984C36.3905 3.904 36.2305 3.816 36.0491 3.72C35.8731 3.624 35.6705 3.53867 35.4411 3.464C35.2118 3.384 34.9505 3.344 34.6571 3.344C34.1505 3.344 33.7718 3.45333 33.5211 3.672C33.2758 3.88533 33.1531 4.176 33.1531 4.544C33.1531 4.77867 33.2278 4.97333 33.3771 5.128C33.5265 5.28267 33.7211 5.416 33.9611 5.528C34.2065 5.64 34.4838 5.744 34.7931 5.84C35.1078 5.93067 35.4278 6.03467 35.7531 6.152C36.0785 6.264 36.3958 6.39733 36.7051 6.552C37.0198 6.70667 37.2971 6.904 37.5371 7.144C37.7825 7.384 37.9798 7.67733 38.1291 8.024C38.2785 8.36533 38.3531 8.77867 38.3531 9.264C38.3531 9.80267 38.2598 10.3067 38.0731 10.776C37.8865 11.2453 37.6145 11.656 37.2571 12.008C36.9051 12.3547 36.4678 12.6293 35.9451 12.832C35.4278 13.0293 34.8385 13.128 34.1771 13.128C33.8145 13.128 33.4438 13.0907 33.0651 13.016C32.6918 12.9413 32.3291 12.8373 31.9771 12.704C31.6251 12.5653 31.2945 12.4027 30.9851 12.216C30.6758 12.0293 30.4065 11.8213 30.1771 11.592L30.9771 10.328C31.0411 10.2373 31.1238 10.1627 31.2251 10.104C31.3318 10.04 31.4465 10.008 31.5691 10.008C31.7291 10.008 31.8891 10.0587 32.0491 10.16C32.2145 10.2613 32.3985 10.3733 32.6011 10.496C32.8091 10.6187 33.0465 10.7307 33.3131 10.832C33.5798 10.9333 33.8945 10.984 34.2571 10.984C34.7478 10.984 35.1291 10.8773 35.4011 10.664C35.6731 10.4453 35.8091 10.1013 35.8091 9.632C35.8091 9.36 35.7345 9.13867 35.5851 8.968C35.4358 8.79733 35.2385 8.656 34.9931 8.544C34.7531 8.432 34.4785 8.33333 34.1691 8.248C33.8598 8.16267 33.5425 8.06933 33.2171 7.968C32.8918 7.86133 32.5745 7.73333 32.2651 7.584C31.9558 7.42933 31.6785 7.22933 31.4331 6.984C31.1931 6.73333 30.9985 6.424 30.8491 6.056C30.6998 5.68267 30.6251 5.224 30.6251 4.68C30.6251 4.24267 30.7131 3.816 30.8891 3.4C31.0651 2.984 31.3238 2.61333 31.6651 2.288C32.0065 1.96267 32.4251 1.704 32.9211 1.512C33.4171 1.31467 33.9851 1.216 34.6251 1.216C34.9825 1.216 35.3291 1.24533 35.6651 1.304C36.0065 1.35733 36.3291 1.44 36.6331 1.552C36.9371 1.65867 37.2198 1.78933 37.4811 1.944C37.7478 2.09333 37.9851 2.264 38.1931 2.456L37.5211 3.712ZM51.5353 3.488H48.2553V13H45.5513V3.488H42.2713V1.344H51.5353V3.488ZM57.9286 8.544L56.8486 5.352C56.7686 5.14933 56.6833 4.912 56.5926 4.64C56.502 4.36267 56.4113 4.064 56.3206 3.744C56.2406 4.06933 56.1553 4.37067 56.0646 4.648C55.974 4.92533 55.8886 5.16533 55.8086 5.368L54.7366 8.544H57.9286ZM62.2246 13H60.1286C59.894 13 59.7046 12.9467 59.5606 12.84C59.4166 12.728 59.3073 12.5867 59.2326 12.416L58.5446 10.384H54.1126L53.4246 12.416C53.366 12.5653 53.2593 12.7013 53.1046 12.824C52.9553 12.9413 52.7686 13 52.5446 13H50.4326L54.9446 1.344H57.7126L62.2246 13ZM70.1676 10.84V13H63.1436V1.344H65.8476V10.84H70.1676ZM74.2539 6.064H74.6859C75.0859 6.064 75.3739 5.93867 75.5499 5.688L78.1739 1.88C78.3285 1.67733 78.4939 1.53867 78.6699 1.464C78.8512 1.384 79.0752 1.344 79.3419 1.344H81.6939L78.2379 6.056C77.9925 6.38133 77.7285 6.616 77.4459 6.76C77.6485 6.83467 77.8325 6.93867 77.9979 7.072C78.1632 7.20533 78.3179 7.37867 78.4619 7.592L81.9819 13H79.5659C79.4112 13 79.2779 12.9893 79.1659 12.968C79.0592 12.9467 78.9659 12.9147 78.8859 12.872C78.8059 12.8293 78.7365 12.7787 78.6779 12.72C78.6192 12.656 78.5632 12.584 78.5099 12.504L75.8699 8.448C75.7739 8.29867 75.6512 8.19467 75.5019 8.136C75.3579 8.072 75.1605 8.04 74.9099 8.04H74.2539V13H71.5499V1.344H74.2539V6.064ZM82.2228 11.744C82.2228 11.552 82.2574 11.3733 82.3268 11.208C82.4014 11.0427 82.5001 10.8987 82.6228 10.776C82.7508 10.6533 82.9001 10.5573 83.0708 10.488C83.2414 10.4133 83.4281 10.376 83.6308 10.376C83.8281 10.376 84.0121 10.4133 84.1828 10.488C84.3534 10.5573 84.5028 10.6533 84.6308 10.776C84.7588 10.8987 84.8574 11.0427 84.9268 11.208C85.0014 11.3733 85.0388 11.552 85.0388 11.744C85.0388 11.936 85.0014 12.1173 84.9268 12.288C84.8574 12.4533 84.7588 12.5973 84.6308 12.72C84.5028 12.8427 84.3534 12.9387 84.1828 13.008C84.0121 13.0773 83.8281 13.112 83.6308 13.112C83.4281 13.112 83.2414 13.0773 83.0708 13.008C82.9001 12.9387 82.7508 12.8427 82.6228 12.72C82.5001 12.5973 82.4014 12.4533 82.3268 12.288C82.2574 12.1173 82.2228 11.936 82.2228 11.744Z" fill="white"/>
</svg>
