<svg width="24" height="25" viewBox="0 0 24 25" fill="none" xmlns="http://www.w3.org/2000/svg">
<g clip-path="url(#clip0_325_6353)">
<path d="M11.9902 1.25146C5.62781 1.25146 0.470215 6.40906 0.470215 12.7715C0.470215 19.1339 5.62781 24.2915 11.9902 24.2915C18.3526 24.2915 23.5102 19.1339 23.5102 12.7715C23.5102 6.40906 18.3526 1.25146 11.9902 1.25146ZM9.17021 17.5463H6.83741V10.0391H9.17021V17.5463ZM7.98941 9.11746C7.25261 9.11746 6.77621 8.59546 6.77621 7.94986C6.77621 7.29106 7.26701 6.78466 8.01941 6.78466C8.77181 6.78466 9.23261 7.29106 9.24701 7.94986C9.24701 8.59546 8.77181 9.11746 7.98941 9.11746ZM17.6902 17.5463H15.3574V13.3859C15.3574 12.4175 15.019 11.7599 14.1754 11.7599C13.531 11.7599 13.1482 12.2051 12.979 12.6335C12.9166 12.7859 12.901 13.0019 12.901 13.2167V17.5451H10.567V12.4331C10.567 11.4959 10.537 10.7123 10.5058 10.0379H12.5326L12.6394 11.0807H12.6862C12.9934 10.5911 13.7458 9.86866 15.0046 9.86866C16.5394 9.86866 17.6902 10.8971 17.6902 13.1075V17.5463Z" fill="white"/>
</g>
<defs>
<clipPath id="clip0_325_6353">
<rect width="24" height="24" fill="white" transform="translate(-0.00976562 0.771484)"/>
</clipPath>
</defs>
</svg>
