<svg width="227" height="49" viewBox="0 0 227 49" fill="none" xmlns="http://www.w3.org/2000/svg">
<g clip-path="url(#clip0_325_6339)">
<path fill-rule="evenodd" clip-rule="evenodd" d="M22.0162 0.0837162C17.2291 0.532884 12.3467 2.61644 8.55781 5.82688C2.36526 11.0742 -0.852086 19.3838 0.180866 27.4624C0.9236 33.2706 3.37315 38.1419 7.59748 42.2114C11.3314 45.8084 15.8829 47.9999 21.1902 48.756C23.3657 49.0659 27.0272 48.9483 29.1273 48.5011C35.7132 47.0985 41.1527 43.3786 44.8091 37.7769C48.3106 32.4128 49.5292 25.4875 48.1018 19.0664C46.1237 10.1685 39.1896 2.98791 30.4152 0.751036C27.935 0.118667 24.5279 -0.151977 22.0162 0.0837162ZM28.4124 0.868623C35.763 2.18793 41.9198 6.69611 45.4441 13.3394C48.4129 18.936 48.9909 25.824 47.0031 31.9192C46.1822 34.4364 44.5672 37.441 42.9527 39.4551C38.9927 44.3948 33.1211 47.6435 26.991 48.2869C17.0273 49.3326 7.6626 44.2439 3.09456 35.3018C0.00487434 29.2535 -0.313643 21.9158 2.23618 15.5303C3.98395 11.1536 7.17778 7.19868 11.0752 4.58488C14.1065 2.55213 17.8841 1.11575 21.1763 0.74441C21.8514 0.668271 22.5783 0.581218 22.7915 0.551074C23.6651 0.427251 27.0047 0.616039 28.4124 0.868623ZM22.7915 1.32858C22.5783 1.35768 21.9096 1.44733 21.3055 1.52776C12.9928 2.63502 5.77334 8.51019 2.89259 16.5123C1.84491 19.4225 1.46825 21.9288 1.58273 25.2278C1.7259 29.3507 2.69283 32.6866 4.78432 36.2741L5.32677 37.2046L6.04766 36.8343C6.4941 36.6049 7.07635 36.4327 7.57629 36.3819C8.0204 36.3366 8.38389 36.2735 8.38389 36.2413C8.38389 36.2092 8.26759 36.0342 8.12545 35.8525C7.72217 35.337 7.77489 34.4957 8.24382 33.9676L8.62061 33.5433L11.2701 33.5035L13.9194 33.4636L14.471 32.529C14.7744 32.0149 15.2733 31.218 15.5798 30.7581C16.0328 30.0779 16.137 29.8112 16.1376 29.3289C16.1388 28.4368 16.4751 26.3837 16.7881 25.3577C17.2416 23.8715 18.3826 21.8046 19.4143 20.6007C22.4089 17.1058 26.5424 15.0503 32.6898 13.999C35.4216 13.5317 40.8171 13.1709 40.8171 13.4555C40.8171 13.5407 40.6062 14.1779 40.3483 14.8716C39.0771 18.2917 37.2202 21.2872 34.926 23.6188L33.8245 24.7386L32.6367 24.815C31.9834 24.8571 30.4604 24.8478 29.2523 24.7946C28.0441 24.7412 27.0357 24.7102 27.0113 24.7257C26.77 24.8789 29.3426 25.7146 31.0287 26.0309C31.7216 26.1609 32.2861 26.2964 32.2833 26.3322C32.2745 26.4452 30.7122 27.5612 29.7035 28.175C27.5753 29.4701 25.4421 30.3189 23.2069 30.76C21.919 31.0142 20.401 31.0933 20.401 30.9062C20.401 30.7346 21.4753 29.0378 22.2765 27.9439C24.0755 25.488 25.6453 23.6352 27.8122 21.4105L29.2523 19.9321L28.477 20.4275C24.3228 23.0826 20.5695 26.9322 17.3803 31.8088C16.8385 32.6373 16.3953 33.3518 16.3953 33.3967C16.3953 33.4415 17.4856 33.4787 18.8181 33.4792C20.9952 33.48 21.2793 33.5055 21.6199 33.7312C22.3939 34.2443 22.5641 35.1387 22.0129 35.7973C21.6363 36.2474 21.6466 36.2548 22.8561 36.408C24.3445 36.5964 25.823 37.7577 26.3386 39.1431C26.5832 39.8004 26.6033 40.1428 26.6033 43.6344V47.4143L27.2817 47.3261C35.773 46.2221 42.8749 40.648 45.9321 32.6879C46.4481 31.3446 47.0814 28.8714 47.2708 27.4597C47.4742 25.9435 47.4402 22.3816 47.2081 20.9062C46.0056 13.259 41.254 6.8506 34.327 3.53414C31.3902 2.12816 28.4759 1.42836 25.1596 1.33286C24.0703 1.30142 23.0047 1.2996 22.7915 1.32858ZM171.39 5.39642C170.467 5.84026 170.202 6.11636 169.631 7.23064C169.249 7.97709 169.194 8.21447 169.152 9.30952C169.094 10.8072 169.307 11.4619 170.142 12.3577L170.703 12.9593L170.564 13.5715C170.286 14.7967 169.754 19.0389 169.641 20.9401C169.313 26.4443 169.661 31.2789 170.68 35.3636C171.212 37.4982 171.463 38.1331 171.944 38.5591C172.4 38.9633 172.727 39.0235 173.175 38.785C173.851 38.4253 173.972 38.134 174.494 35.6222C175.437 31.0797 175.432 24.3856 174.482 18.5364C174.239 17.0397 173.703 14.3531 173.524 13.7299C173.324 13.0375 173.353 12.9199 173.91 12.1698C174.404 11.504 174.426 11.4308 174.426 10.512C174.426 9.6884 174.364 9.41749 173.987 8.61907C173.283 7.12527 173.284 7.15788 173.962 6.52291C174.977 5.57196 174.652 5.02352 173.073 5.02378C172.34 5.02378 172.016 5.09563 171.39 5.39642ZM172.4 6.96831C172.333 7.53858 172.382 7.73139 172.823 8.62492C173.216 9.42295 173.322 9.78675 173.325 10.3508L173.328 11.0654L172.424 11.1304C171.926 11.1661 171.299 11.1744 171.031 11.1488C170.35 11.0841 170.118 10.6144 170.185 9.43659C170.229 8.65338 170.296 8.46771 170.83 7.66058C171.349 6.87502 171.974 6.33932 172.385 6.32594C172.435 6.32425 172.442 6.61335 172.4 6.96831ZM172.586 13.5341C172.842 14.5639 173.486 17.858 173.639 18.9262C173.867 20.523 174.039 21.7658 174.039 21.8239C174.039 21.8539 173.501 21.8518 172.844 21.8194C172.186 21.787 171.388 21.8211 171.07 21.8952C170.752 21.9692 170.478 22.0154 170.46 21.9976C170.379 21.916 170.968 16.3604 171.199 15.0283C171.617 12.6196 171.55 12.7992 172.016 12.8445C172.388 12.8809 172.438 12.9411 172.586 13.5341ZM174.088 22.9414C174.25 23.0764 174.297 23.3596 174.297 24.1965C174.297 24.7911 174.247 25.3086 174.186 25.3466C174.074 25.4162 173.922 25.4194 172.617 25.3794C172.227 25.3674 171.572 25.4058 171.164 25.4645L170.421 25.5713V24.2855V22.9998L170.905 22.8563C171.576 22.6577 173.82 22.7178 174.088 22.9414ZM174.154 26.3207C174.302 26.4152 174.321 26.93 174.258 29.2746C174.18 32.2038 173.902 34.555 173.408 36.4667C173.085 37.7184 173.026 37.8602 172.79 37.9513C172.397 38.1029 172.294 37.9176 171.776 36.122C171.159 33.9832 170.628 30.6645 170.473 27.9746L170.387 26.4841L170.953 26.3571C171.674 26.1953 173.917 26.1699 174.154 26.3207Z" fill="#F9FAFB"/>
</g>
<g clip-path="url(#clip1_325_6339)">
<path fill-rule="evenodd" clip-rule="evenodd" d="M63.1577 36.2923V12.7533H67.9744C70.6236 12.7533 73.2839 12.8147 73.886 12.8895C78.9499 13.5191 82.5877 16.8349 83.6436 21.7835C83.9355 23.151 83.9327 25.8219 83.6378 27.2405C82.7034 31.737 79.6007 34.8931 75.0487 35.9777C74.3803 36.1368 73.0615 36.1902 68.6817 36.2354L63.1577 36.2923ZM78.0775 19.222C77.1513 17.8112 75.9327 16.9654 74.1745 16.5132C73.3523 16.3018 72.7423 16.2614 70.3731 16.2614H67.5511V32.7625H70.3731C72.7653 32.7625 73.3481 32.7233 74.1983 32.5046C76.1736 31.9966 77.6007 30.8392 78.514 29.0044C79.2865 27.4526 79.4826 26.375 79.4105 24.0776C79.34 21.8244 79.0194 20.6566 78.0775 19.222Z" fill="#F9FAFB"/>
<path d="M135.389 36.2706V12.7533H139.654V22.6565L140.598 22.6085C141.222 22.5768 141.663 22.4814 141.896 22.3276C142.09 22.1995 143.765 20.1871 145.617 17.8557C147.47 15.5242 149.11 13.511 149.262 13.3817C149.759 12.9597 150.38 12.8681 152.464 12.9087L154.484 12.9482L151.258 16.9111C149.483 19.0907 147.598 21.4122 147.07 22.0702C146.541 22.7282 145.935 23.3692 145.724 23.495C145.512 23.6207 145.341 23.7548 145.343 23.7929C145.345 23.8312 145.602 24.0176 145.913 24.2073C146.332 24.4629 146.923 25.1538 148.193 26.8709C154.039 34.7785 155.03 36.1318 155.03 36.2061C155.03 36.2417 154.069 36.2706 152.894 36.2706C151.38 36.2706 150.635 36.2189 150.335 36.093C150.032 35.9656 149.485 35.3509 148.401 33.9167C148.14 33.5714 147.89 33.2408 147.651 32.9244C147.428 32.6289 147.214 32.3457 147.009 32.0743L147.008 32.0737C143.118 26.9201 142.437 26.0174 141.629 25.8832C141.457 25.8547 141.28 25.8608 141.065 25.8683C140.955 25.8721 140.835 25.8762 140.7 25.8762H139.654V36.2706H135.389Z" fill="#F9FAFB"/>
<path d="M124.681 14.8157C124.524 14.9734 124.362 15.4876 124.221 16.2774C123.61 19.6995 123.597 19.7499 123.317 19.8176C123.17 19.8531 122.57 19.9546 121.983 20.0432L120.917 20.2043V21.1563C120.917 22.4582 121.088 22.628 122.395 22.628H123.357L123.405 27.9226C123.457 33.6398 123.467 33.7243 124.183 34.7953C124.984 35.991 126.065 36.4681 127.96 36.4614C129.312 36.4566 130.581 36.1155 131.549 35.497L132.166 35.1025L131.95 34.6795C131.541 33.878 130.728 32.7625 130.553 32.7625C130.457 32.7625 130.125 32.8782 129.815 33.0195C128.934 33.4214 128.342 33.3684 127.817 32.8405L127.378 32.3987V22.628H131.741L131.784 19.7695H127.378V14.5723H126.151C125.123 14.5723 124.884 14.612 124.681 14.8157Z" fill="#F9FAFB"/>
<path fill-rule="evenodd" clip-rule="evenodd" d="M87.7504 22.2998C88.9239 20.7369 90.4801 19.8941 93.0066 19.4537C93.6212 19.3465 95.9168 19.4997 96.6555 19.6972C99.4677 20.4489 101.447 22.5849 102.105 25.577C102.372 26.7945 102.372 29.1158 102.105 30.3332C101.221 34.3542 97.9379 36.7399 93.6527 36.4749C91.2817 36.3283 89.8399 35.7105 88.3497 34.2029C86.6421 32.4755 86.0936 30.9405 86.0936 27.8902C86.0936 26.2067 86.1349 25.8087 86.3974 24.9683C86.7783 23.7485 87.0185 23.2745 87.7504 22.2998ZM95.5909 22.6565C96.6214 22.9758 97.449 23.8469 97.8477 25.0317C98.4034 26.6832 98.3896 29.5331 97.8189 30.9942C97.1582 32.6855 96.2398 33.3201 94.3502 33.3915C93.3601 33.429 93.0693 33.3906 92.5118 33.1495C91.1685 32.5684 90.426 31.3107 90.1611 29.1679C89.9591 27.5326 90.2195 25.4888 90.7703 24.3878C91.5799 22.7691 93.6064 22.0414 95.5909 22.6565Z" fill="#F9FAFB"/>
<path fill-rule="evenodd" clip-rule="evenodd" d="M110.329 19.5781C108.751 19.8653 107.24 20.5311 106.088 21.4465L105.421 21.9765L105.89 22.7684C106.149 23.204 106.496 23.6504 106.663 23.7605C107.117 24.0596 107.953 23.9109 108.876 23.3669C110.83 22.2156 113.027 22.2056 113.918 23.3442C114.317 23.8539 114.586 24.8728 114.586 25.8722V26.7305L112.744 26.881C107.577 27.3031 104.72 29.1368 104.706 32.0403C104.699 33.6307 105.195 34.7397 106.293 35.5814C107.716 36.6725 110.505 36.8074 112.553 35.8842C112.892 35.7314 113.555 35.3136 114.025 34.9558C114.495 34.5981 114.921 34.3528 114.972 34.411C115.023 34.469 115.138 34.7914 115.228 35.1273C115.482 36.0769 115.693 36.1983 117.183 36.2504L118.462 36.2949L118.46 30.6634C118.458 26.1952 118.418 24.8442 118.267 24.1244C117.514 20.5516 114.492 18.8207 110.329 19.5781ZM114.521 32.175L114.594 29.2544L113.718 29.2752C111.273 29.3332 109.308 29.9587 108.767 30.8506C108.432 31.4035 108.429 32.4276 108.76 32.975C109.122 33.5711 109.956 33.8567 111.064 33.7639C112.314 33.6594 112.803 33.4791 113.714 32.7872L114.521 32.175Z" fill="#F9FAFB"/>
<path fill-rule="evenodd" clip-rule="evenodd" d="M161.62 19.656C162.011 19.577 162.447 19.4851 162.589 19.4521C163.097 19.3339 165.575 19.506 166.337 19.7122C168.866 20.3972 170.681 22.1751 171.57 24.8368C171.975 26.0505 172.078 28.817 171.771 30.2415C171.122 33.2595 169.116 35.4396 166.272 36.2188C165.216 36.508 162.646 36.5449 161.62 36.2857C158.913 35.6014 157.063 33.8737 156.108 31.1371C155.767 30.1594 155.747 29.9741 155.749 27.9551C155.752 25.9773 155.779 25.7301 156.101 24.7617C156.983 22.1033 159.071 20.1717 161.62 19.656ZM165.709 22.7933C166.645 23.2932 167.368 24.3644 167.701 25.7463C167.916 26.6384 167.929 29.2234 167.723 30.1287C167.405 31.5244 166.697 32.581 165.721 33.1176C165.117 33.4493 162.659 33.4469 161.994 33.1139C160.48 32.3557 159.759 30.6851 159.768 27.9551C159.778 25.161 160.496 23.5521 162.072 22.7961C162.647 22.5199 162.861 22.4908 164.011 22.5311C164.897 22.562 165.431 22.6445 165.709 22.7933Z" fill="#F9FAFB"/>
<path d="M179.602 11.8184V36.4541H176.023V11.8184H179.602Z" fill="#F9FAFB"/>
<path d="M210.467 19.3199C209.573 19.572 208.762 20.0487 207.989 20.7751L207.384 21.3441L207.236 20.6244C207.01 19.5325 206.746 19.3798 205.084 19.3798H203.745V36.0108H207.621V23.8305L208.212 23.2826C209.101 22.459 209.783 22.2015 210.923 22.2594C211.745 22.3011 211.93 22.3588 212.361 22.7057C213.276 23.4441 213.295 23.5919 213.301 30.1965L213.307 36.0108H217.303L217.34 30.1315C217.377 24.2974 217.379 24.2479 217.671 23.6983C218.248 22.6127 219.572 22.0044 220.835 22.2442C221.61 22.3912 221.853 22.5228 222.27 23.0211C222.957 23.8419 222.998 24.2566 222.998 30.3825V36.0108H226.992L226.999 30.9761C227.009 23.9979 226.863 22.8141 225.792 21.2327C224.052 18.6606 219.338 18.403 217.002 20.7523C216.671 21.0851 216.313 21.5264 216.207 21.7328C216.101 21.9394 215.987 22.1083 215.954 22.1083C215.921 22.1083 215.815 21.9183 215.718 21.6861C215.379 20.8789 214.517 19.942 213.779 19.5789C212.882 19.1374 211.498 19.0291 210.467 19.3199Z" fill="#F9FAFB"/>
<path fill-rule="evenodd" clip-rule="evenodd" d="M190.873 19.2409C187.459 19.7897 185.152 22.0406 184.403 25.5515C184.095 26.9946 184.226 29.5484 184.676 30.8773C185.699 33.8975 187.88 35.7045 191.05 36.1564C194.774 36.687 198.176 35.0678 199.589 32.0923C200.253 30.6932 200.514 29.4758 200.514 27.7786C200.514 25.9278 200.246 24.6165 199.598 23.2929C198.676 21.4133 196.957 20.0097 194.894 19.4533C193.975 19.2056 191.805 19.091 190.873 19.2409ZM193.91 22.4281C195.043 22.83 195.742 23.6961 196.168 25.2266C196.614 26.826 196.542 29.4055 196.015 30.7548C195.363 32.4244 194.437 33.0606 192.554 33.1317C191.123 33.1858 190.326 32.9003 189.552 32.0552C187.875 30.2261 187.853 25.223 189.514 23.3702C190.228 22.574 191.056 22.2411 192.325 22.2396C192.919 22.2388 193.608 22.3208 193.91 22.4281Z" fill="#F9FAFB"/>
</g>
<defs>
<clipPath id="clip0_325_6339">
<rect width="48.7716" height="48.7716" fill="white" transform="translate(-0.00976562)"/>
</clipPath>
<clipPath id="clip1_325_6339">
<rect width="163.385" height="48.7716" fill="white" transform="translate(63.615)"/>
</clipPath>
</defs>
</svg>
