<svg width="264" height="80" viewBox="0 0 264 80" fill="none" xmlns="http://www.w3.org/2000/svg">
<g clip-path="url(#clip0_16_231)">
<path fill-rule="evenodd" clip-rule="evenodd" d="M-0.738281 63.5445V25.5098H7.04457C11.3252 25.5098 15.6237 25.6089 16.5967 25.7298C24.7789 26.7472 30.6569 32.1049 32.3632 40.1008C32.8348 42.3105 32.8302 46.6262 32.3538 48.9184C30.844 56.1839 25.8306 61.2836 18.4753 63.036C17.3953 63.2932 15.2644 63.3795 8.18746 63.4525L-0.738281 63.5445ZM23.3694 35.962C21.8728 33.6824 19.9037 32.3157 17.0629 31.5851C15.7344 31.2435 14.7487 31.1782 10.9205 31.1782H6.36055V57.841H10.9205C14.7858 57.841 15.7275 57.7776 17.1013 57.4242C20.2931 56.6034 22.5989 54.7332 24.0747 51.7686C25.3228 49.261 25.6398 47.52 25.5232 43.8078C25.4093 40.1669 24.8912 38.28 23.3694 35.962Z" fill="white"/>
<path d="M115.975 63.5094V25.5098H122.865V41.5114L124.391 41.4339C125.399 41.3827 126.111 41.2286 126.488 40.98C126.802 40.773 129.508 37.5214 132.501 33.7542C135.494 29.987 138.144 26.734 138.39 26.5251C139.193 25.8432 140.196 25.6952 143.564 25.7609L146.829 25.8247L141.615 32.2279C138.747 35.7497 135.702 39.501 134.848 40.5641C133.994 41.6273 133.015 42.6631 132.673 42.8664C132.331 43.0694 132.055 43.286 132.058 43.3478C132.062 43.4095 132.476 43.7108 132.979 44.0173C133.656 44.4302 134.612 45.5467 136.663 48.3211C146.109 61.0984 147.711 63.285 147.711 63.4051C147.711 63.4626 146.158 63.5094 144.259 63.5094C141.812 63.5094 140.609 63.4259 140.124 63.2225C139.634 63.0165 138.751 62.0232 136.999 59.7059C136.577 59.148 136.173 58.6138 135.787 58.1025C135.426 57.6251 135.081 57.1675 134.75 56.7289L134.749 56.728C128.463 48.4007 127.362 46.9421 126.056 46.7252C125.779 46.6791 125.493 46.689 125.146 46.7011C124.968 46.7073 124.773 46.714 124.556 46.714H122.865V63.5094H115.975Z" fill="white"/>
<path d="M98.6719 28.8422C98.4185 29.0971 98.1573 29.9278 97.9295 31.2041C96.9421 36.7335 96.9212 36.815 96.4673 36.9244C96.2299 36.9817 95.2605 37.1456 94.313 37.2888L92.5905 37.5491V39.0874C92.5905 41.191 92.8661 41.4654 94.9789 41.4654H96.532L96.6101 50.0206C96.6947 59.2585 96.7101 59.395 97.8681 61.1255C99.1609 63.0576 100.908 63.8285 103.97 63.8176C106.155 63.8099 108.206 63.2588 109.769 62.2594L110.767 61.6218L110.418 60.9385C109.756 59.6433 108.442 57.841 108.16 57.841C108.005 57.841 107.468 58.0278 106.968 58.2562C105.544 58.9056 104.588 58.8199 103.74 57.9669L103.03 57.2531V41.4654H110.08L110.149 36.8467H103.03V28.449H101.046C99.3864 28.449 98.9993 28.513 98.6719 28.8422Z" fill="white"/>
<path fill-rule="evenodd" clip-rule="evenodd" d="M38.9989 40.9351C40.8951 38.4097 43.4096 37.048 47.492 36.3363C48.4851 36.1631 52.1944 36.4106 53.388 36.7297C57.9319 37.9445 61.1306 41.3957 62.1929 46.2305C62.6251 48.1977 62.6251 51.9485 62.1929 53.9157C60.7652 60.4128 55.4601 64.2677 48.536 63.8395C44.7049 63.6026 42.3753 62.6044 39.9673 60.1684C37.2081 57.3772 36.3218 54.897 36.3218 49.9681C36.3218 47.2479 36.3886 46.6048 36.8127 45.2469C37.4282 43.276 37.8163 42.5101 38.9989 40.9351ZM51.6678 41.5114C53.3329 42.0274 54.6702 43.4349 55.3143 45.3494C56.2123 48.0179 56.19 52.6228 55.2678 54.9837C54.2002 57.7165 52.7164 58.7418 49.663 58.8573C48.0633 58.9178 47.5933 58.8558 46.6926 58.4662C44.522 57.5273 43.3223 55.4951 42.8943 52.0327C42.5678 49.3903 42.9886 46.0879 43.8785 44.3089C45.1868 41.6934 48.4612 40.5175 51.6678 41.5114Z" fill="white"/>
<path fill-rule="evenodd" clip-rule="evenodd" d="M75.4823 36.5374C72.9322 37.0014 70.4902 38.0771 68.6292 39.5564L67.5519 40.4128L68.31 41.6924C68.727 42.3961 69.2888 43.1175 69.5588 43.2953C70.2925 43.7786 71.6431 43.5384 73.1347 42.6594C76.2916 40.7991 79.8414 40.7829 81.2806 42.6226C81.9249 43.4462 82.3598 45.0926 82.3598 46.7075V48.0944L79.3846 48.3375C71.0355 49.0196 66.4194 51.9825 66.3964 56.6739C66.3842 59.2438 67.1869 61.0357 68.9604 62.3957C71.2589 64.1588 75.7654 64.3767 79.0758 62.8851C79.6239 62.6382 80.6937 61.963 81.4533 61.3848C82.2129 60.8069 82.9016 60.4105 82.9839 60.5045C83.0662 60.5984 83.2522 61.1192 83.3973 61.6619C83.8074 63.1964 84.149 63.3925 86.5571 63.4767L88.6235 63.5487L88.62 54.4491C88.6171 47.2294 88.5526 45.0464 88.3074 43.8833C87.0912 38.1103 82.2085 35.3135 75.4823 36.5374ZM82.2554 56.8916L82.3736 52.1725L80.9574 52.2061C77.0075 52.2997 73.8314 53.3104 72.9576 54.7517C72.4161 55.645 72.4111 57.2997 72.9474 58.1842C73.5316 59.1475 74.879 59.6089 76.6697 59.459C78.6887 59.2902 79.479 58.9988 80.952 57.8809L82.2554 56.8916Z" fill="white"/>
<path fill-rule="evenodd" clip-rule="evenodd" d="M158.359 36.6632C158.991 36.5355 159.695 36.3871 159.925 36.3338C160.745 36.1427 164.749 36.4209 165.98 36.7541C170.067 37.8609 173 40.7336 174.435 45.0345C175.09 46.9955 175.257 51.4656 174.761 53.7675C173.712 58.644 170.471 62.1666 165.876 63.4257C164.17 63.893 160.017 63.9526 158.359 63.5338C153.984 62.428 150.996 59.6364 149.453 55.2146C148.902 53.6348 148.868 53.3354 148.873 50.0731C148.877 46.8773 148.921 46.4778 149.44 44.9131C150.866 40.6177 154.24 37.4964 158.359 36.6632ZM164.966 41.7325C166.479 42.5403 167.646 44.2711 168.185 46.5041C168.532 47.9455 168.553 52.1224 168.22 53.5852C167.706 55.8404 166.562 57.5477 164.985 58.4148C164.009 58.9507 160.038 58.9468 158.963 58.4087C156.517 57.1836 155.352 54.4842 155.367 50.0731C155.382 45.5583 156.542 42.9586 159.088 41.7371C160.019 41.2908 160.364 41.2437 162.222 41.3088C163.653 41.3588 164.516 41.4921 164.966 41.7325Z" fill="white"/>
<path d="M187.414 23.999V63.8059H181.631V23.999H187.414Z" fill="white"/>
<path d="M237.287 36.1201C235.843 36.5274 234.531 37.2977 233.283 38.4715L232.305 39.3908L232.065 38.228C231.701 36.4636 231.275 36.2169 228.589 36.2169H226.425V63.0896H232.688V43.4085L233.643 42.5232C235.079 41.1924 236.182 40.7762 238.024 40.8699C239.351 40.9373 239.651 41.0305 240.346 41.591C241.826 42.7841 241.856 43.0228 241.866 53.6946L241.875 63.0896H248.331L248.391 53.5897C248.451 44.1628 248.455 44.0828 248.927 43.1948C249.859 41.4407 251.998 40.4578 254.04 40.8453C255.292 41.0827 255.685 41.2954 256.358 42.1005C257.468 43.4268 257.534 44.0969 257.534 53.9953V63.0896H263.988L263.999 54.9543C264.015 43.6789 263.778 41.7661 262.049 39.2109C259.237 35.0549 251.62 34.6386 247.845 38.4345C247.31 38.9724 246.732 39.6854 246.561 40.019C246.389 40.3528 246.206 40.6257 246.153 40.6257C246.1 40.6257 245.928 40.3186 245.77 39.9434C245.224 38.6392 243.831 37.1253 242.638 36.5385C241.188 35.8251 238.952 35.6503 237.287 36.1201Z" fill="white"/>
<path fill-rule="evenodd" clip-rule="evenodd" d="M205.625 35.9925C200.11 36.8793 196.381 40.5163 195.171 46.1892C194.674 48.521 194.886 52.6475 195.613 54.7948C197.265 59.6749 200.791 62.5946 205.912 63.3247C211.929 64.1821 217.426 61.5658 219.709 56.7579C220.783 54.4973 221.205 52.5301 221.205 49.7878C221.205 46.7972 220.772 44.6784 219.723 42.5398C218.234 39.5027 215.456 37.2347 212.123 36.3357C210.638 35.9354 207.132 35.7502 205.625 35.9925ZM210.534 41.1424C212.364 41.7917 213.493 43.1912 214.182 45.6643C214.902 48.2485 214.787 52.4165 213.935 54.5968C212.881 57.2945 211.384 58.3226 208.343 58.4375C206.029 58.5248 204.743 58.0636 203.491 56.6981C200.782 53.7425 200.747 45.6585 203.431 42.6647C204.584 41.3782 205.922 40.8403 207.973 40.8377C208.932 40.8365 210.045 40.969 210.534 41.1424Z" fill="white"/>
</g>
<defs>
<clipPath id="clip0_16_231">
<rect width="264" height="78.806" fill="white" transform="translate(0 0.805908)"/>
</clipPath>
</defs>
</svg>
