<svg width="24" height="25" viewBox="0 0 24 25" fill="none" xmlns="http://www.w3.org/2000/svg">
<path d="M11.9902 2.27148C6.1918 2.27148 1.49023 6.97305 1.49023 12.7715C1.49023 18.5699 6.1918 23.2715 11.9902 23.2715C17.7887 23.2715 22.4902 18.5699 22.4902 12.7715C22.4902 6.97305 17.7887 2.27148 11.9902 2.27148ZM17.0363 10.1863C17.0434 10.2965 17.0434 10.4113 17.0434 10.5238C17.0434 13.9645 14.423 17.9277 9.63477 17.9277C8.1582 17.9277 6.78945 17.4988 5.63633 16.7605C5.84727 16.784 6.04883 16.7934 6.26445 16.7934C7.4832 16.7934 8.60352 16.3809 9.49648 15.6824C8.35273 15.659 7.3918 14.909 7.06367 13.8777C7.46445 13.9363 7.82539 13.9363 8.23789 13.8309C7.64897 13.7112 7.11963 13.3914 6.7398 12.9257C6.35998 12.46 6.15309 11.8771 6.1543 11.2762V11.2434C6.49883 11.4379 6.9043 11.5574 7.32852 11.5738C6.9719 11.3362 6.67943 11.0142 6.47706 10.6364C6.27468 10.2586 6.16865 9.83676 6.16836 9.4082C6.16836 8.92305 6.29492 8.48008 6.52227 8.0957C7.17594 8.9004 7.99163 9.55854 8.91632 10.0273C9.84101 10.4961 10.854 10.7651 11.8895 10.8168C11.5215 9.04727 12.8434 7.61523 14.4324 7.61523C15.1824 7.61523 15.8574 7.9293 16.3332 8.43555C16.9215 8.32539 17.484 8.10508 17.9855 7.80977C17.791 8.41211 17.3832 8.9207 16.8418 9.2418C17.3668 9.18555 17.873 9.04023 18.3418 8.83633C17.9879 9.35664 17.5449 9.81836 17.0363 10.1863Z" fill="white"/>
</svg>
